<?xml version="1.0" encoding="UTF-8"?>
<svg width="16px" height="16px" viewBox="0 0 16 16" version="1.1" xmlns="http://www.w3.org/2000/svg" xmlns:xlink="http://www.w3.org/1999/xlink">
    <g id="SVG/enlarge" stroke="none" stroke-width="1" fill="none" fill-rule="evenodd">
        <path d="M13,2 C13.5522847,2 14,2.44771525 14,3 L14,13 C14,13.5522847 13.5522847,14 13,14 L3,14 C2.44771525,14 2,13.5522847 2,13 L2,3 C2,2.44771525 2.44771525,2 3,2 L13,2 Z M13,3 L3,3 L3,13 L13,13 L13,3 Z M6.78033009,8.3232233 L7.48743687,9.03033009 L5.57307229,10.9442416 L6.86611652,10.9445436 L6.86611652,11.9445436 L3.86611652,11.9445436 L3.86611652,8.94454365 L4.86611652,8.94454365 L4.86596551,10.2371348 L6.78033009,8.3232233 Z M12.1338835,3.6767767 L12.1338835,6.6767767 L11.1338835,6.6767767 L11.1335815,5.38373247 L9.21966991,7.29809704 L8.51256313,6.59099026 L10.4264747,4.67662568 L9.13388348,4.6767767 L9.13388348,3.6767767 L12.1338835,3.6767767 Z" id="形状结合" fill="#12131A"></path>
    </g>
</svg>