<?xml version="1.0" encoding="UTF-8"?>
<svg width="16px" height="16px" viewBox="0 0 16 16" version="1.1" xmlns="http://www.w3.org/2000/svg" xmlns:xlink="http://www.w3.org/1999/xlink">
    <title>文本选择/rtf_h</title>
    <g id="文本选择/rtf_h" stroke="none" stroke-width="1" fill="none" fill-rule="evenodd">
        <path d="M3.56499133,2.27272727 C3.69670711,2.27272727 3.79896014,2.24777184 3.87175043,2.19786096 C3.95725014,2.1372549 4,2.04337493 4,1.91622103 C4,1.82947118 3.97920277,1.76054664 3.93760832,1.70944742 C3.89601386,1.65834819 3.83419988,1.6244801 3.75216638,1.60784314 C3.81224726,1.58526441 3.86019642,1.55020796 3.89601386,1.5026738 C3.93067591,1.45276292 3.94800693,1.39215686 3.94800693,1.32085561 C3.94800693,1.22341058 3.91507799,1.14616756 3.8492201,1.08912656 C3.78105142,1.02970885 3.68630849,1 3.56499133,1 L3.56499133,1 L3,1 L3,2.27272727 L3.56499133,2.27272727 Z M3.49350649,1.54545455 L3.18181818,1.54545455 L3.18181818,1.18181818 L3.49682233,1.18181818 C3.57861288,1.18181818 3.63719259,1.19604496 3.67256148,1.22449851 C3.70903565,1.25181391 3.72727273,1.29620145 3.72727273,1.35766112 C3.72727273,1.42253521 3.70903565,1.47033717 3.67256148,1.50106701 C3.63498204,1.5306587 3.57529704,1.54545455 3.49350649,1.54545455 L3.49350649,1.54545455 Z M3.53988351,2.09090909 L3.18181818,2.09090909 L3.18181818,1.72727273 L3.54520132,1.72727273 C3.63855828,1.72727273 3.70709884,1.74190178 3.75082299,1.77115987 C3.79572888,1.8014629 3.81818182,1.84952978 3.81818182,1.9153605 C3.81818182,1.97910136 3.78922934,2.0261233 3.73132439,2.05642633 C3.6828733,2.07941484 3.61905968,2.09090909 3.53988351,2.09090909 L3.53988351,2.09090909 Z" id="B" fill="#989898"></path>
        <path d="M13,15 L11,15 L11,9 L5,9 L5,15 L3,15 L3,1 L5,1 L5,7 L11,7 L11,1 L13,1 L13,15 Z" id="形状结合" fill="#656565"></path>
    </g>
</svg>