<?xml version="1.0" encoding="UTF-8"?>
<svg width="16px" height="16px" viewBox="0 0 16 16" version="1.1" xmlns="http://www.w3.org/2000/svg" xmlns:xlink="http://www.w3.org/1999/xlink">
    <title>文本选择/rtf_image</title>
    <g id="文本选择/rtf_image" stroke="none" stroke-width="1" fill="none" fill-rule="evenodd">
        <rect id="矩形" fill="#656565" x="1" y="2" width="14" height="12" rx="1"></rect>
        <path d="M12.8819672,11.3073992 L11.4693015,6.80327152 C11.386662,6.53978466 11.1060711,6.39317891 10.8425843,6.47581841 C10.7555211,6.50312472 10.67759,6.55373457 10.6172336,6.62216504 L8.08571655,9.49233292 L8.08571655,9.49233292 L6.04478488,8.0023511 C5.82175357,7.83952713 5.50895606,7.88833482 5.34613209,8.11136613 C5.33632438,8.12480043 5.32719315,8.13871578 5.31877248,8.15306025 L3.52782552,11.2039065 C3.38802858,11.4420481 3.46775268,11.7484278 3.70589429,11.8882248 C3.78264222,11.9332783 3.87002428,11.9570313 3.95901905,11.9570313 L12.4048821,11.9570313 C12.6810244,11.9570313 12.9048821,11.7331736 12.9048821,11.4570313 C12.9048821,11.40628 12.8971553,11.3558245 12.8819672,11.3073992 Z" id="路径" fill="#FFFFFF"></path>
        <circle id="椭圆形" fill="#FFFFFF" cx="5" cy="5" r="1"></circle>
    </g>
</svg>