<?xml version="1.0" encoding="UTF-8"?>
<svg width="16px" height="16px" viewBox="0 0 16 16" version="1.1" xmlns="http://www.w3.org/2000/svg" xmlns:xlink="http://www.w3.org/1999/xlink">
    <g id="文本选择/rtf_b" stroke="none" stroke-width="1" fill="none" fill-rule="evenodd">
        <path d="M9.21490468,15 C10.6637782,15 11.7885615,14.7254902 12.5892548,14.1764706 C13.5297516,13.5098039 14,12.4771242 14,11.0784314 C14,10.124183 13.7712305,9.36601307 13.3136915,8.80392157 C12.8561525,8.24183007 12.1761987,7.86928105 11.2738302,7.68627451 C11.9347198,7.4379085 12.4621606,7.05228758 12.8561525,6.52941176 C13.237435,5.98039216 13.4280763,5.31372549 13.4280763,4.52941176 C13.4280763,3.45751634 13.0658579,2.60784314 12.3414211,1.98039216 C11.5915656,1.32679739 10.5493934,1 9.21490468,1 L9.21490468,1 L3,1 L3,15 L9.21490468,15 Z M8.42857143,7 L5,7 L5,3 L8.46504559,3 C9.36474164,3 10.0091185,3.15649452 10.3981763,3.46948357 C10.7993921,3.76995305 11,4.25821596 11,4.9342723 C11,5.64788732 10.7993921,6.17370892 10.3981763,6.51173709 C9.98480243,6.8372457 9.32826748,7 8.42857143,7 L8.42857143,7 Z M8.93871866,13 L5,13 L5,9 L8.99721448,9 C10.0241411,9 10.7780873,9.16091954 11.2590529,9.48275862 C11.7530176,9.81609195 12,10.3448276 12,11.0689655 C12,11.7701149 11.6815227,12.2873563 11.0445682,12.6206897 C10.5116063,12.8735632 9.80965645,13 8.93871866,13 L8.93871866,13 Z" id="B" fill="#656565"></path>
    </g>
</svg>